<mxfile host="65bd71144e">
    <diagram id="pAi_KdXQo00Ve_mjZ8XZ" name="PÃ¡gina-1">
        <mxGraphModel dx="1477" dy="383" grid="1" gridSize="10" guides="1" tooltips="1" connect="1" arrows="1" fold="1" page="1" pageScale="1" pageWidth="827" pageHeight="1169" math="0" shadow="0">
            <root>
                <mxCell id="0"/>
                <mxCell id="1" parent="0"/>
                <mxCell id="4" value="" style="edgeStyle=none;html=1;fontSize=18;" parent="1" source="2" target="3" edge="1">
                    <mxGeometry relative="1" as="geometry"/>
                </mxCell>
                <mxCell id="2" value="&lt;font style=&quot;font-size: 28px;&quot;&gt;Inicio&lt;/font&gt;" style="ellipse;whiteSpace=wrap;html=1;fillColor=#647687;fontColor=#ffffff;strokeColor=#314354;fontFamily=Comic Sans MS;fontSize=28;" parent="1" vertex="1">
                    <mxGeometry x="250" y="80" width="120" height="80" as="geometry"/>
                </mxCell>
                <mxCell id="27" style="edgeStyle=none;html=1;entryX=0.5;entryY=0;entryDx=0;entryDy=0;" parent="1" source="3" target="26" edge="1">
                    <mxGeometry relative="1" as="geometry"/>
                </mxCell>
                <mxCell id="3" value="&lt;font style=&quot;font-size: 24px;&quot;&gt;A,B,C&lt;/font&gt;" style="shape=parallelogram;perimeter=parallelogramPerimeter;whiteSpace=wrap;html=1;fixedSize=1;fillColor=#1ba1e2;fontColor=#ffffff;strokeColor=#006EAF;fontFamily=Comic Sans MS;fontSize=24;" parent="1" vertex="1">
                    <mxGeometry x="250" y="210" width="120" height="60" as="geometry"/>
                </mxCell>
                <mxCell id="21" style="edgeStyle=none;html=1;entryX=0.5;entryY=0;entryDx=0;entryDy=0;fontSize=18;" parent="1" source="5" target="29" edge="1">
                    <mxGeometry relative="1" as="geometry">
                        <Array as="points">
                            <mxPoint x="495" y="610"/>
                        </Array>
                    </mxGeometry>
                </mxCell>
                <mxCell id="22" style="edgeStyle=none;html=1;exitX=0;exitY=0.5;exitDx=0;exitDy=0;entryX=0.5;entryY=0;entryDx=0;entryDy=0;fontSize=18;" parent="1" source="5" edge="1">
                    <mxGeometry relative="1" as="geometry">
                        <Array as="points">
                            <mxPoint x="125" y="610"/>
                        </Array>
                        <mxPoint x="125" y="700" as="targetPoint"/>
                    </mxGeometry>
                </mxCell>
                <mxCell id="5" value="D&amp;gt;0" style="rhombus;whiteSpace=wrap;html=1;fontSize=28;fillColor=#e3c800;fontColor=#000000;strokeColor=#B09500;fontFamily=Comic Sans MS;" parent="1" vertex="1">
                    <mxGeometry x="245" y="540" width="130" height="140" as="geometry"/>
                </mxCell>
                <mxCell id="25" style="edgeStyle=none;html=1;entryX=1;entryY=0.5;entryDx=0;entryDy=0;fontSize=18;" parent="1" source="15" target="23" edge="1">
                    <mxGeometry relative="1" as="geometry">
                        <Array as="points">
                            <mxPoint x="500" y="1160"/>
                        </Array>
                    </mxGeometry>
                </mxCell>
                <mxCell id="15" value="X1,X2&lt;br style=&quot;font-size: 21px;&quot;&gt;dos raices reales diferentes" style="shape=document;whiteSpace=wrap;html=1;boundedLbl=1;fontSize=21;fillColor=#60a917;fontColor=#ffffff;strokeColor=#2D7600;fontFamily=Comic Sans MS;" parent="1" vertex="1">
                    <mxGeometry x="414" y="890" width="166" height="120" as="geometry"/>
                </mxCell>
                <mxCell id="23" value="Fin" style="ellipse;whiteSpace=wrap;html=1;fontSize=32;fillColor=#e51400;fontColor=#ffffff;strokeColor=#B20000;fontFamily=Comic Sans MS;" parent="1" vertex="1">
                    <mxGeometry x="227" y="1120" width="120" height="80" as="geometry"/>
                </mxCell>
                <mxCell id="28" style="edgeStyle=none;html=1;" parent="1" source="26" target="5" edge="1">
                    <mxGeometry relative="1" as="geometry"/>
                </mxCell>
                <mxCell id="26" value="&lt;font style=&quot;font-size: 28px&quot;&gt;D=B^2-4*A*C&lt;/font&gt;" style="text;strokeColor=#3700CC;fillColor=#6a00ff;html=1;fontSize=28;fontStyle=0;verticalAlign=middle;align=center;fontColor=#ffffff;fontFamily=Comic Sans MS;" parent="1" vertex="1">
                    <mxGeometry x="215" y="350" width="187.5" height="70" as="geometry"/>
                </mxCell>
                <mxCell id="30" style="edgeStyle=none;html=1;fontSize=18;" parent="1" source="29" target="15" edge="1">
                    <mxGeometry relative="1" as="geometry"/>
                </mxCell>
                <mxCell id="29" value="&lt;font style=&quot;font-size: 23px;&quot;&gt;X1=-B+sqrt(D)/2*A&lt;br style=&quot;font-size: 23px;&quot;&gt;X2=&lt;/font&gt;&lt;span style=&quot;font-size: 23px;&quot;&gt;-B-sqrt(D)/2*A&lt;/span&gt;" style="text;strokeColor=#3700CC;fillColor=#6a00ff;html=1;fontSize=23;fontStyle=0;verticalAlign=middle;align=center;fontColor=#ffffff;fontFamily=Comic Sans MS;" parent="1" vertex="1">
                    <mxGeometry x="400" y="680" width="194" height="70" as="geometry"/>
                </mxCell>
                <mxCell id="38" style="edgeStyle=none;html=1;entryX=0.5;entryY=0;entryDx=0;entryDy=0;fontSize=18;" parent="1" source="40" target="44" edge="1">
                    <mxGeometry relative="1" as="geometry">
                        <Array as="points">
                            <mxPoint x="286" y="770"/>
                        </Array>
                    </mxGeometry>
                </mxCell>
                <mxCell id="39" style="edgeStyle=none;html=1;exitX=0;exitY=0.5;exitDx=0;exitDy=0;entryX=0.5;entryY=0;entryDx=0;entryDy=0;fontSize=18;" parent="1" source="40" edge="1">
                    <mxGeometry relative="1" as="geometry">
                        <Array as="points">
                            <mxPoint x="-61.5" y="770"/>
                        </Array>
                        <mxPoint x="-61.50000000000023" y="860" as="targetPoint"/>
                    </mxGeometry>
                </mxCell>
                <mxCell id="40" value="D=0" style="rhombus;whiteSpace=wrap;html=1;fontSize=27;fillColor=#e3c800;fontColor=#000000;strokeColor=#B09500;fontFamily=Comic Sans MS;" parent="1" vertex="1">
                    <mxGeometry x="58.5" y="700" width="130" height="140" as="geometry"/>
                </mxCell>
                <mxCell id="47" style="edgeStyle=none;html=1;entryX=0.5;entryY=0;entryDx=0;entryDy=0;fontSize=18;" parent="1" source="44" target="46" edge="1">
                    <mxGeometry relative="1" as="geometry"/>
                </mxCell>
                <mxCell id="44" value="&lt;span style=&quot;font-size: 26px&quot;&gt;X1=-&amp;lt;B/2*A&lt;br style=&quot;font-size: 26px&quot;&gt;X2=X1&lt;br style=&quot;font-size: 26px&quot;&gt;&lt;/span&gt;" style="text;strokeColor=#3700CC;fillColor=#6a00ff;html=1;fontSize=26;fontStyle=0;verticalAlign=middle;align=center;fontColor=#ffffff;fontFamily=Comic Sans MS;" parent="1" vertex="1">
                    <mxGeometry x="195.25" y="830" width="183.5" height="70" as="geometry"/>
                </mxCell>
                <mxCell id="48" style="edgeStyle=none;html=1;entryX=0;entryY=0.5;entryDx=0;entryDy=0;fontSize=18;" parent="1" source="45" target="23" edge="1">
                    <mxGeometry relative="1" as="geometry">
                        <Array as="points">
                            <mxPoint x="-60" y="1160"/>
                        </Array>
                    </mxGeometry>
                </mxCell>
                <mxCell id="45" value="Raices imaginarias o complejas" style="shape=document;whiteSpace=wrap;html=1;boundedLbl=1;fontSize=19;fillColor=#60a917;fontColor=#ffffff;strokeColor=#2D7600;fontFamily=Comic Sans MS;" parent="1" vertex="1">
                    <mxGeometry x="-140" y="860" width="160" height="110" as="geometry"/>
                </mxCell>
                <mxCell id="49" style="edgeStyle=none;html=1;entryX=0.5;entryY=0;entryDx=0;entryDy=0;fontSize=18;" parent="1" source="46" target="23" edge="1">
                    <mxGeometry relative="1" as="geometry"/>
                </mxCell>
                <mxCell id="46" value="X1,X2&lt;br style=&quot;font-size: 20px&quot;&gt;dos raices reales iguales" style="shape=document;whiteSpace=wrap;html=1;boundedLbl=1;fontSize=20;fillColor=#60a917;fontColor=#ffffff;strokeColor=#2D7600;fontFamily=Comic Sans MS;" parent="1" vertex="1">
                    <mxGeometry x="207" y="960" width="160" height="110" as="geometry"/>
                </mxCell>
            </root>
        </mxGraphModel>
    </diagram>
</mxfile>